<?xml version="1.0" standalone="no"?>
<!DOCTYPE svg PUBLIC "-//W3C//DTD SVG 20010904//EN"
 "http://www.w3.org/TR/2001/REC-SVG-20010904/DTD/svg10.dtd">
<svg version="1.0" xmlns="http://www.w3.org/2000/svg"
 width="512.000000pt" height="512.000000pt" viewBox="0 0 512.000000 512.000000"
 preserveAspectRatio="xMidYMid meet">
<metadata>
Created by potrace 1.14, written by Peter Selinger 2001-2017
</metadata>
<g transform="translate(0.000000,512.000000) scale(0.100000,-0.100000)"
fill="#000000" stroke="none">
<path d="M1636 5105 c-14 -15 -13 -37 4 -60 5 -5 18 -28 30 -50 12 -22 65
-114 117 -203 52 -90 93 -165 91 -166 -51 -30 -165 -109 -203 -140 -65 -53
-174 -163 -211 -212 -16 -22 -31 -41 -35 -44 -5 -4 -26 -36 -77 -115 -71 -111
-159 -356 -177 -491 -2 -20 -7 -54 -10 -75 l-6 -39 1396 0 c1325 0 1396 1
1391 18 -2 9 -7 37 -10 62 -6 48 -8 57 -25 135 -41 180 -152 409 -268 550
-108 130 -261 262 -389 334 l-42 23 59 100 c33 55 59 103 59 107 0 4 5 12 12
19 13 13 61 95 104 180 25 47 26 54 13 68 -19 18 -47 9 -60 -20 -5 -11 -13
-28 -19 -36 -13 -21 -93 -157 -119 -202 -11 -21 -31 -55 -43 -75 -11 -21 -30
-54 -41 -75 l-20 -36 -42 18 c-74 32 -227 80 -274 86 -25 3 -49 8 -53 10 -27
17 -295 24 -398 11 -126 -15 -331 -71 -411 -113 -32 -16 -49 -18 -49 -6 0 9
-235 418 -252 440 -14 16 -23 15 -42 -3z m351 -889 c38 -41 44 -95 17 -147
-16 -32 -83 -69 -113 -64 -9 2 -23 4 -31 4 -19 1 -63 39 -78 68 -21 38 -14 93
14 130 33 43 57 54 114 49 35 -3 51 -11 77 -40z m1256 25 c80 -53 84 -158 7
-212 -101 -73 -235 38 -187 154 29 69 120 98 180 58z"/>
<path d="M652 3439 c-101 -19 -194 -97 -232 -193 -19 -49 -19 -77 -18 -778 1
-727 1 -727 23 -782 28 -68 57 -105 115 -144 146 -98 336 -63 433 81 20 28 41
72 47 97 12 48 9 1454 -3 1498 -10 38 -53 105 -89 141 -68 67 -176 99 -276 80z"/>
<path d="M4332 3439 c-105 -20 -196 -99 -233 -204 -19 -56 -20 -79 -18 -769 2
-545 5 -721 15 -755 18 -63 70 -133 123 -169 133 -88 294 -71 404 43 86 88 82
41 82 880 l0 740 -26 55 c-63 134 -203 206 -347 179z"/>
<path d="M1159 3393 c0 -5 -1 -484 -1 -1065 -1 -992 0 -1060 17 -1105 35 -95
115 -172 208 -202 22 -8 95 -13 177 -13 l140 -1 1 -71 c0 -39 1 -213 2 -386 2
-297 4 -318 23 -360 90 -191 325 -249 489 -120 43 34 100 124 109 171 3 13 5
191 5 395 l1 372 210 0 210 1 0 -47 c0 -26 2 -200 4 -387 l3 -340 26 -52 c57
-111 138 -169 250 -180 152 -14 279 64 329 204 20 55 21 78 20 429 l0 372 152
0 c169 0 210 8 277 50 60 38 102 94 135 177 4 11 9 503 9 1093 l2 1072 -1399
0 c-769 0 -1398 -3 -1399 -7z"/>
</g>
</svg>
