<?xml version="1.0" standalone="no"?>
<!DOCTYPE svg PUBLIC "-//W3C//DTD SVG 20010904//EN"
 "http://www.w3.org/TR/2001/REC-SVG-20010904/DTD/svg10.dtd">
<svg version="1.0" xmlns="http://www.w3.org/2000/svg"
 width="2048.000000pt" height="2048.000000pt" viewBox="0 0 2048.000000 2048.000000"
 preserveAspectRatio="xMidYMid meet">
<metadata>
Created by potrace 1.14, written by Peter Selinger 2001-2017
</metadata>
<g transform="translate(0.000000,2048.000000) scale(0.100000,-0.100000)"
fill="#000000" stroke="none">
<path d="M6765 20449 c-72 -14 -202 -80 -263 -135 -128 -113 -201 -265 -206
-432 -5 -131 30 -237 139 -432 20 -36 58 -103 84 -150 27 -47 65 -116 86 -155
21 -38 49 -87 62 -107 13 -21 23 -40 23 -43 0 -3 20 -40 44 -83 64 -113 95
-169 134 -242 19 -36 38 -69 42 -75 4 -5 22 -37 40 -70 18 -33 41 -74 51 -91
l19 -31 -98 -64 c-162 -106 -290 -198 -437 -313 -77 -60 -142 -112 -145 -115
-3 -3 -36 -33 -75 -66 -122 -104 -329 -305 -445 -431 -30 -33 -73 -80 -96
-105 -35 -38 -199 -240 -276 -340 -237 -307 -505 -787 -670 -1199 -83 -205
-202 -584 -224 -709 -3 -14 -11 -51 -19 -81 -14 -54 -18 -77 -31 -155 -3 -22
-8 -43 -9 -46 -2 -3 -7 -28 -10 -55 -4 -27 -8 -56 -10 -64 -2 -8 -7 -42 -11
-75 -3 -33 -8 -67 -9 -76 -2 -9 -6 -52 -10 -95 -4 -43 -9 -88 -11 -99 -8 -42
-17 -320 -18 -537 0 -126 -1 -228 -1 -228 0 0 -39 37 -86 83 -103 100 -129
121 -244 198 -134 89 -361 194 -465 214 -8 2 -35 8 -60 15 -25 7 -60 14 -79
16 -19 3 -37 6 -40 8 -11 7 -162 19 -246 19 -79 1 -213 -8 -270 -18 -87 -15
-147 -29 -215 -51 -41 -13 -78 -24 -82 -24 -4 -1 -34 -12 -65 -26 -425 -186
-706 -466 -897 -896 -49 -111 -101 -321 -114 -457 -9 -106 -8 -5289 2 -5380 4
-41 12 -98 17 -125 5 -28 12 -63 14 -78 13 -71 81 -255 135 -363 79 -157 172
-286 295 -410 84 -85 252 -225 269 -225 3 0 25 -14 50 -30 132 -89 411 -193
582 -216 27 -3 58 -8 69 -11 41 -9 293 -10 375 -1 184 20 375 76 541 158 172
85 291 170 435 311 l80 79 1 -388 c0 -213 3 -423 7 -467 65 -761 640 -1400
1390 -1544 155 -30 212 -34 509 -35 l267 0 1 -1166 c0 -641 2 -1185 3 -1210 8
-117 36 -250 80 -385 201 -606 744 -1043 1381 -1112 79 -9 253 -9 340 0 66 6
86 9 145 22 14 3 34 7 45 9 227 44 492 175 690 341 306 257 513 621 571 1005
3 25 8 59 11 75 2 17 6 566 7 1220 2 655 4 1192 5 1195 0 3 171 6 379 6 l377
0 1 -1161 c0 -1026 4 -1311 18 -1334 3 -4 7 -27 11 -51 17 -121 72 -284 145
-432 80 -160 172 -288 304 -421 226 -227 489 -371 806 -444 36 -8 74 -16 85
-17 104 -16 145 -19 245 -20 135 -2 301 16 415 45 232 59 414 148 610 297 74
56 227 207 286 282 165 210 276 464 335 765 4 22 9 526 11 1120 2 594 4 1145
6 1225 l2 145 260 1 c233 1 350 6 425 19 14 2 41 6 60 9 71 10 232 57 322 92
551 217 951 695 1067 1275 30 149 34 228 35 652 0 207 3 377 6 377 3 0 34 -30
70 -66 148 -150 349 -284 554 -366 307 -124 665 -148 996 -68 191 46 392 139
560 258 106 75 273 236 341 327 24 33 47 62 52 63 4 2 7 7 7 12 0 5 16 32 36
62 48 73 127 235 162 338 28 79 61 223 78 330 4 25 7 1233 8 2685 2 2758 2
2764 -39 2928 -9 34 -27 98 -41 142 -25 76 -39 112 -84 208 -104 221 -286 442
-485 589 -27 21 -54 41 -60 46 -23 19 -136 83 -210 120 -120 60 -271 110 -410
137 -16 3 -41 7 -55 10 -94 18 -282 23 -415 11 -342 -31 -719 -203 -957 -435
-31 -31 -70 -68 -85 -83 l-29 -28 0 218 c-1 191 -10 467 -19 558 -8 89 -23
210 -31 264 -3 19 -7 50 -10 67 -2 18 -6 47 -9 64 -2 17 -6 38 -9 48 -3 9 -8
36 -11 61 -17 122 -97 432 -173 665 -78 243 -266 677 -334 778 -11 15 -17 27
-14 27 6 0 -115 210 -169 295 -89 140 -116 179 -192 288 -82 114 -220 291
-292 373 -127 144 -189 211 -291 313 -135 135 -243 235 -369 339 -24 21 -49
42 -55 48 -60 58 -511 379 -593 423 -13 6 -23 17 -23 24 0 7 60 120 133 252
73 132 151 272 172 310 21 39 106 192 188 340 173 312 191 349 210 442 41 200
-28 413 -179 552 -105 97 -226 149 -365 158 -82 6 -202 -8 -237 -27 -10 -4
-35 -16 -57 -25 -62 -27 -159 -100 -196 -147 -19 -24 -37 -45 -40 -48 -7 -5
-163 -282 -237 -420 -19 -36 -38 -69 -42 -75 -4 -5 -21 -35 -37 -65 -17 -30
-42 -76 -56 -101 -14 -25 -37 -66 -50 -90 -65 -120 -130 -238 -206 -374 -31
-55 -62 -112 -70 -127 -8 -16 -18 -28 -22 -28 -4 0 -58 18 -120 39 -158 54
-487 150 -571 166 -11 2 -27 6 -36 9 -9 3 -28 7 -42 10 -14 2 -70 14 -125 25
-55 12 -116 24 -135 27 -19 3 -57 9 -85 14 -27 6 -70 12 -95 15 -25 3 -56 7
-70 10 -14 3 -47 7 -75 10 -27 3 -66 7 -85 10 -37 5 -134 14 -204 20 -106 9
-346 18 -486 19 -161 0 -480 -11 -516 -18 -11 -2 -58 -7 -105 -10 -46 -4 -93
-9 -104 -11 -11 -2 -40 -7 -65 -9 -86 -11 -135 -17 -160 -21 -14 -2 -56 -9
-95 -15 -99 -15 -302 -57 -425 -87 -58 -14 -109 -26 -115 -28 -83 -19 -316
-89 -448 -135 -65 -22 -121 -40 -126 -40 -4 0 -17 19 -30 43 -12 23 -29 56
-39 72 -9 17 -37 66 -61 110 -24 44 -53 96 -64 115 -11 19 -32 58 -47 85 -15
28 -40 73 -55 100 -106 190 -163 292 -169 305 -4 8 -12 24 -19 35 -7 11 -61
110 -122 219 -121 219 -185 297 -299 365 -115 69 -290 97 -431 70z"/>
</g>
</svg>
